<svg xmlns="http://www.w3.org/2000/svg" version="1.1" xmlns:xlink="http://www.w3.org/1999/xlink" xmlns:svgjs="http://svgjs.dev/svgjs" width="1440" height="560" preserveAspectRatio="none" viewBox="0 0 1440 560"><g mask="url(&quot;#SvgjsMask1101&quot;)" fill="none"><path d="M1154.51 333.35 a95.85 95.85 0 1 0 191.7 0 a95.85 95.85 0 1 0 -191.7 0z" fill="rgba(230, 58, 61, 0.11)" class="triangle-float2"></path><path d="M893.51 237.31 a151.56 151.56 0 1 0 303.12 0 a151.56 151.56 0 1 0 -303.12 0z" fill="rgba(230, 58, 61, 0.11)" class="triangle-float2"></path><path d="M931.96 232.86 a129.61 129.61 0 1 0 259.22 0 a129.61 129.61 0 1 0 -259.22 0z" fill="rgba(230, 58, 61, 0.11)" class="triangle-float1"></path><path d="M949.488,113.212C974.552,113.279,993.926,94.119,1006.63,72.513C1019.554,50.533,1026.759,24.318,1015.09,1.647C1002.515,-22.785,976.966,-38.491,949.488,-38.502C921.991,-38.513,896.312,-22.889,883.792,1.593C872.21,24.24,879.968,50.288,892.871,72.21C905.539,93.733,924.514,113.145,949.488,113.212" fill="rgba(230, 58, 61, 0.11)" class="triangle-float1"></path><path d="M5.68 7.1 a131.67 131.67 0 1 0 263.34 0 a131.67 131.67 0 1 0 -263.34 0z" fill="rgba(230, 58, 61, 0.11)" class="triangle-float2"></path><path d="M1191.9 403.35 a185.71 185.71 0 1 0 371.42 0 a185.71 185.71 0 1 0 -371.42 0z" fill="rgba(230, 58, 61, 0.11)" class="triangle-float1"></path><path d="M1028.04 462.3 a144.5 144.5 0 1 0 289 0 a144.5 144.5 0 1 0 -289 0z" fill="rgba(230, 58, 61, 0.11)" class="triangle-float3"></path><path d="M1173.63 161.8 a102.98 102.98 0 1 0 205.96 0 a102.98 102.98 0 1 0 -205.96 0z" fill="rgba(230, 58, 61, 0.11)" class="triangle-float2"></path><path d="M669.72 105.54 a143.51 143.51 0 1 0 287.02 0 a143.51 143.51 0 1 0 -287.02 0z" fill="rgba(230, 58, 61, 0.11)" class="triangle-float3"></path><path d="M46.37 549.65 a133.33 133.33 0 1 0 266.66 0 a133.33 133.33 0 1 0 -266.66 0z" fill="rgba(230, 58, 61, 0.11)" class="triangle-float1"></path><path d="M76.66 474.46 a102.34 102.34 0 1 0 204.68 0 a102.34 102.34 0 1 0 -204.68 0z" fill="rgba(230, 58, 61, 0.11)" class="triangle-float2"></path></g><defs><mask id="SvgjsMask1101"><rect width="1440" height="560" fill="#ffffff"></rect></mask><style>
                @keyframes float1 {
                    0%{transform: translate(0, 0)}
                    50%{transform: translate(-10px, 0)}
                    100%{transform: translate(0, 0)}
                }

                .triangle-float1 {
                    animation: float1 5s infinite;
                }

                @keyframes float2 {
                    0%{transform: translate(0, 0)}
                    50%{transform: translate(-5px, -5px)}
                    100%{transform: translate(0, 0)}
                }

                .triangle-float2 {
                    animation: float2 4s infinite;
                }

                @keyframes float3 {
                    0%{transform: translate(0, 0)}
                    50%{transform: translate(0, -10px)}
                    100%{transform: translate(0, 0)}
                }

                .triangle-float3 {
                    animation: float3 6s infinite;
                }
            </style></defs></svg>