<svg xmlns="http://www.w3.org/2000/svg" version="1.1" xmlns:xlink="http://www.w3.org/1999/xlink" xmlns:svgjs="http://svgjs.dev/svgjs" width="1440" height="560" preserveAspectRatio="none" viewBox="0 0 1440 560"><g mask="url(&quot;#SvgjsMask1009&quot;)" fill="none"><path d="M1406.615,130.691C1440.938,130.644,1468.931,106.348,1485.984,76.561C1502.913,46.991,1507.108,11.973,1492.093,-18.613C1475.042,-53.346,1445.301,-85.876,1406.615,-85.117C1368.741,-84.374,1343.492,-49.353,1326.753,-15.371C1312.205,14.163,1311.072,47.893,1326.867,76.78C1343.366,106.955,1372.224,130.738,1406.615,130.691" fill="rgba(230, 58, 61, 0.11)" class="triangle-float1"></path><path d="M870.29 490.43 a117.42 117.42 0 1 0 234.84 0 a117.42 117.42 0 1 0 -234.84 0z" fill="rgba(230, 58, 61, 0.11)" class="triangle-float2"></path><path d="M-68.43 486.19 a126.03 126.03 0 1 0 252.06 0 a126.03 126.03 0 1 0 -252.06 0z" fill="rgba(230, 58, 61, 0.11)" class="triangle-float1"></path><path d="M1110.84 513.85 a145.12 145.12 0 1 0 290.24 0 a145.12 145.12 0 1 0 -290.24 0z" fill="rgba(230, 58, 61, 0.11)" class="triangle-float2"></path><path d="M1066.853,348.432C1083.346,349.638,1100.153,342.83,1108.715,328.682C1117.55,314.082,1116.251,295.699,1107.706,280.927C1099.174,266.178,1083.89,256.033,1066.853,256.315C1050.25,256.59,1035.52,267.299,1028.276,282.241C1021.814,295.57,1026.943,310.451,1034.402,323.249C1041.791,335.928,1052.217,347.362,1066.853,348.432" fill="rgba(230, 58, 61, 0.11)" class="triangle-float3"></path><path d="M956.047,504.561C1008.03,505.246,1047.052,462.429,1072.229,416.944C1096.462,373.163,1107.093,320.441,1081.887,277.213C1056.835,234.249,1005.78,217.469,956.047,217.693C906.766,217.914,856.411,235.439,832.151,278.335C808.192,320.698,821.671,371.264,845.049,413.951C869.638,458.85,904.86,503.887,956.047,504.561" fill="rgba(230, 58, 61, 0.11)" class="triangle-float2"></path></g><defs><mask id="SvgjsMask1009"><rect width="1440" height="560" fill="#ffffff"></rect></mask><style>
                @keyframes float1 {
                    0%{transform: translate(0, 0)}
                    50%{transform: translate(-10px, 0)}
                    100%{transform: translate(0, 0)}
                }

                .triangle-float1 {
                    animation: float1 5s infinite;
                }

                @keyframes float2 {
                    0%{transform: translate(0, 0)}
                    50%{transform: translate(-5px, -5px)}
                    100%{transform: translate(0, 0)}
                }

                .triangle-float2 {
                    animation: float2 4s infinite;
                }

                @keyframes float3 {
                    0%{transform: translate(0, 0)}
                    50%{transform: translate(0, -10px)}
                    100%{transform: translate(0, 0)}
                }

                .triangle-float3 {
                    animation: float3 6s infinite;
                }
            </style></defs></svg>